<svg width="45" height="45" viewBox="0 0 45 45" fill="none" xmlns="http://www.w3.org/2000/svg">
<path fill-rule="evenodd" clip-rule="evenodd" d="M24.8732 44.4464H24.8861C25.2945 41.2277 28.0596 38.1757 29.8894 36.6864C32.3115 34.7149 33.863 34.3016 36.012 32.8781C38.3937 31.3004 40.2308 29.5651 41.8087 27.3412C42.5195 26.3391 43.2895 25.007 43.8234 23.6855C44.8391 21.1715 44.9272 19.3386 45.0003 19.1543V18.0076C44.9135 17.8206 44.9079 17.6164 44.7944 17.3998C43.1118 17.2673 43.9369 20.3965 41.2528 23.8671C39.859 25.6695 38.0515 27.4085 35.9418 28.4832C34.9592 28.9837 31.1072 30.4837 30.1509 29.5578C29.5852 29.0101 30.5313 28.3504 30.8353 28.1493C31.3475 27.8105 31.9069 27.5375 32.4077 27.1969C34.0315 26.0931 35.0475 24.2871 34.114 22.2854C33.972 22.3463 33.6165 22.7105 33.5099 22.8003C31.9849 24.0835 30.8514 25.0137 28.9814 26.0153C28.2512 26.4063 27.5145 26.7697 26.8818 27.2822L26.3165 27.7815C23.7154 30.2082 22.6592 33.6937 22.953 37.5451C23.1218 39.7576 23.9829 42.7864 24.8732 44.4466V44.4464Z" fill="#00AFEF"/>
<path fill-rule="evenodd" clip-rule="evenodd" d="M0 17.9682V19.2474C0.259907 19.826 -0.00265121 22.6186 3.21696 27.3694C3.96955 28.4798 4.98595 29.597 5.84893 30.4054C8.56478 32.9494 9.69671 33.1989 12.6318 34.9568C13.2369 35.3191 13.8167 35.6849 14.3518 36.0984C14.6412 36.3218 14.8751 36.4994 15.1429 36.7108C16.9468 38.1355 19.7141 41.3185 20.1145 44.4461H20.1247C20.5936 43.5998 21.0374 42.2468 21.3495 41.217C22.4432 37.607 22.4281 33.3948 20.612 30.2312C19.3504 28.0333 18.1324 27.1504 16.0157 26.0175C14.8186 25.3769 13.0967 24.1994 12.0897 23.3221C11.7847 23.0564 11.1481 22.5598 10.9609 22.284C10.8893 22.3404 10.9295 22.2987 10.8665 22.3749C10.8408 22.4059 10.8135 22.4494 10.7968 22.4787C10.7759 22.5152 10.7145 22.6565 10.6936 22.7093C10.5015 23.1972 10.4749 23.7733 10.5614 24.2878C10.6744 24.9612 10.9752 25.5487 11.3212 25.9997C11.6966 26.4893 12.0986 26.8477 12.6269 27.2177C13.2389 27.6465 15.7387 28.7366 14.8252 29.5876C14.3503 30.0301 13.4118 29.8272 12.7607 29.7201C8.85884 29.0784 5.94216 26.6901 3.71869 23.838C2.95237 22.8551 2.48728 21.9594 1.99008 20.5753C1.77086 19.9649 1.61121 19.2953 1.41725 18.6788C1.19726 17.9794 1.02887 17.3512 0.189121 17.3918L0 17.968V17.9682Z" fill="#00AFEF"/>
<path fill-rule="evenodd" clip-rule="evenodd" d="M37.0864 26.5362C37.4499 26.3832 38.3507 25.5701 38.6543 25.3063C38.816 25.1658 39.2572 24.7648 39.3152 24.5695C39.4069 24.2611 39.4666 23.6571 39.521 23.3105C39.6816 22.2861 40.1846 18.975 39.6657 18.192C39.4551 17.8742 39.0068 17.9927 38.7435 18.2144C38.2921 18.5943 37.8964 20.9021 37.7887 21.5265C37.6276 22.4597 37.0858 25.772 37.0864 26.5362Z" fill="#00AFEF"/>
<path fill-rule="evenodd" clip-rule="evenodd" d="M7.91031 26.5343C7.92076 25.8419 7.37553 22.4202 7.21868 21.5728C7.10611 20.9644 6.70261 18.6479 6.28663 18.2406C6.03374 17.9932 5.55836 17.8482 5.33463 18.1915C4.82682 18.9711 5.30921 22.2333 5.47448 23.2698C5.6148 24.1498 5.53576 24.5188 5.94737 24.9203C6.45814 25.4184 7.29134 26.2284 7.91016 26.5343H7.91031Z" fill="#00AFEF"/>
<path fill-rule="evenodd" clip-rule="evenodd" d="M42.2058 16.3916H41.8536C41.3843 16.7586 41.3478 16.4184 40.9534 17.846C40.5675 19.2422 40.0187 22.6663 39.9097 24.0112C40.5848 23.4308 41.6914 21.83 42.106 20.9053C42.4975 20.0319 42.5366 19.7787 42.5898 18.694C42.6115 18.2521 42.6291 17.7845 42.5878 17.3441C42.5705 17.1599 42.529 16.937 42.4765 16.7842C42.3826 16.511 42.3639 16.5813 42.206 16.3918L42.2058 16.3916Z" fill="#00AFEF"/>
<path fill-rule="evenodd" clip-rule="evenodd" d="M3.14695 16.3915H2.80098C2.28522 16.9614 2.36239 17.7116 2.40652 18.6362C2.48713 20.3254 2.8727 21.1634 3.87506 22.5599C4.16257 22.9606 4.78513 23.7625 5.08947 24.0054C4.97067 22.6461 4.43308 19.2845 4.06138 17.8887C3.71791 16.599 3.68719 16.768 3.14695 16.3914V16.3915Z" fill="#00AFEF"/>
<path fill-rule="evenodd" clip-rule="evenodd" d="M34.7651 27.8434C35.2123 27.7119 35.9657 27.2788 36.3497 27.0442C36.5648 26.9127 36.5243 26.9615 36.5748 26.7085C36.8392 25.3806 37.3731 21.7735 36.9643 20.95C36.8152 20.6498 36.1723 20.4492 35.7857 21.766C35.3734 23.1716 34.8634 26.4561 34.7653 27.8435L34.7651 27.8434Z" fill="#00AFEF"/>
<path fill-rule="evenodd" clip-rule="evenodd" d="M10.2314 27.8422C10.1483 26.5634 9.61069 23.1236 9.22886 21.8069C9.14513 21.518 9.04332 21.1675 8.87509 20.9834C8.6919 20.7829 8.24614 20.5902 8.05359 20.9112C7.59068 21.6831 8.14947 25.0279 8.33891 26.1764C8.44321 26.8089 8.37102 26.8571 8.65525 27.0389C8.98922 27.2527 9.83162 27.7343 10.2315 27.842L10.2314 27.8422Z" fill="#00AFEF"/>
<path fill-rule="evenodd" clip-rule="evenodd" d="M8.44501 17.0978C8.52951 17.2243 8.58736 17.3198 8.67685 17.439L9.14444 18.0835C9.70198 18.8434 10.3314 19.5468 10.9354 20.2694C11.2324 20.6249 12.2647 21.6355 12.619 21.9898C12.7253 22.0961 12.8555 22.2239 12.9986 22.3621C13.2738 21.8611 13.5969 21.344 13.8781 20.8444L22.3679 6.50071L31.5454 22.3162L31.608 22.2579C31.7099 22.1728 31.7999 22.0691 31.8959 21.9729C32.2614 21.6075 32.6937 21.2369 33.0233 20.8424L33.4278 20.4043C33.4898 20.3299 33.4912 20.3114 33.5634 20.2365L34.6129 19.028C34.7824 18.8141 34.9351 18.6319 35.1035 18.4064C35.6025 17.7388 36.0777 17.093 36.5066 16.3719L37.6597 14.155C37.7806 13.8729 37.8757 13.6188 37.9875 13.3369C38.2084 12.7801 38.3815 12.2029 38.5017 11.593C38.6406 10.8875 38.7344 10.2033 38.7627 9.52153V8.68459C38.7371 8.08463 38.6541 7.48063 38.4998 6.85947C38.3587 6.29148 38.1632 5.81501 37.9491 5.28708C37.5732 4.36033 36.9012 3.49689 36.2105 2.77937C35.8638 2.41906 35.4818 2.08712 35.0797 1.78699C30.9141 -1.32317 25.7074 -0.169883 22.5602 3.67244L22.2491 4.03541L20.9263 2.59477C19.5195 1.18797 17.3633 0.0250099 15.1044 0.0250099C13.8993 0.0250099 12.935 0.1276 11.8562 0.484018C4.47717 2.92172 4.5754 11.3018 8.44501 17.098V17.0978ZM13.2869 22.6371C13.6787 23.0069 14.1076 23.3944 14.3965 23.6158C14.8197 23.9401 15.2049 24.3151 15.624 24.6464L20.1864 28.0037C20.4213 28.1597 20.6356 28.3144 20.8671 28.4687C21.098 28.6228 21.3144 28.7668 21.5545 28.9273C21.6822 29.0127 21.7811 29.0656 21.905 29.1496C22.018 29.2262 22.1386 29.3114 22.2825 29.345C22.5051 29.1959 22.7338 29.0667 22.9633 28.9136L23.9744 28.2394C24.1006 28.1555 24.1893 28.0858 24.3111 28.0032C24.433 27.9204 24.5287 27.8585 24.6553 27.7746L25.6527 27.0869C25.8756 26.9288 26.098 26.7757 26.3219 26.6101L27.6315 25.6282C28.2717 25.1504 28.9018 24.6524 29.5023 24.1287L31.0032 22.7986C31.0702 22.7397 31.0872 22.7392 31.1544 22.6803L31.2554 22.5861L22.9339 18.9859L26.1936 18.9758C26.0309 18.5435 25.4824 17.7517 25.2309 17.3545C24.807 16.6851 22.5379 12.8581 22.2486 12.594C22.0324 12.821 18.6703 18.5753 18.5393 18.9755L21.5405 18.9792C20.934 19.2452 15.1384 21.8728 13.2869 22.6368V22.6371Z" fill="#00AFEF"/>
</svg>
