<svg width="35" height="35" viewBox="0 0 35 35" fill="none" xmlns="http://www.w3.org/2000/svg">
<circle cx="17.5" cy="17.5" r="17" fill="black" stroke="white"/>
<mask id="path-2-inside-1_984_8563" fill="white">
<path fill-rule="evenodd" clip-rule="evenodd" d="M22.256 16.5328L21.9336 18.7649H18.0607V26.5772H15.7072V18.7649H12.1768V16.5328H15.7072V14.4871C15.7072 11.6491 17.5453 9.81428 20.392 9.81428C21.6111 9.81428 22.3713 9.87567 22.8103 9.93146L22.7761 12.0453L20.9662 12.0486C20.9168 12.0441 19.7377 11.9571 18.8868 12.6981C18.3385 13.1747 18.0607 13.8599 18.0607 14.7327V16.5329H22.256V16.5328ZM19.6765 13.5251C20.1401 13.1155 20.8627 13.1602 20.9156 13.1624L23.9353 13.1613L24 9.03082L23.5458 8.9248C23.2539 8.85673 22.3607 8.69824 20.392 8.69824C16.8863 8.69824 14.5304 11.0252 14.5304 14.4871V15.4168H11V19.881H14.5304V27.6933H19.2375V19.881H22.9585L23.6046 15.4168H19.2375V14.7327C19.2375 14.1892 19.3858 13.7829 19.6765 13.5251Z"/>
</mask>
<path fill-rule="evenodd" clip-rule="evenodd" d="M22.256 16.5328L21.9336 18.7649H18.0607V26.5772H15.7072V18.7649H12.1768V16.5328H15.7072V14.4871C15.7072 11.6491 17.5453 9.81428 20.392 9.81428C21.6111 9.81428 22.3713 9.87567 22.8103 9.93146L22.7761 12.0453L20.9662 12.0486C20.9168 12.0441 19.7377 11.9571 18.8868 12.6981C18.3385 13.1747 18.0607 13.8599 18.0607 14.7327V16.5329H22.256V16.5328ZM19.6765 13.5251C20.1401 13.1155 20.8627 13.1602 20.9156 13.1624L23.9353 13.1613L24 9.03082L23.5458 8.9248C23.2539 8.85673 22.3607 8.69824 20.392 8.69824C16.8863 8.69824 14.5304 11.0252 14.5304 14.4871V15.4168H11V19.881H14.5304V27.6933H19.2375V19.881H22.9585L23.6046 15.4168H19.2375V14.7327C19.2375 14.1892 19.3858 13.7829 19.6765 13.5251Z" fill="black"/>
<path d="M22.256 16.5328H25.256L19.2868 16.1039L22.256 16.5328ZM21.9336 18.7649V21.7649H24.5313L24.9027 19.1939L21.9336 18.7649ZM18.0607 18.7649V15.7649H15.0607V18.7649H18.0607ZM18.0607 26.5772V29.5772H21.0607V26.5772H18.0607ZM15.7072 26.5772H12.7072V29.5772H15.7072V26.5772ZM15.7072 18.7649H18.7072V15.7649H15.7072V18.7649ZM12.1768 18.7649H9.17679V21.7649H12.1768V18.7649ZM12.1768 16.5328V13.5328H9.17679V16.5328H12.1768ZM15.7072 16.5328V19.5328H18.7072V16.5328H15.7072ZM22.8103 9.93146L25.8099 9.9799L25.8532 7.29414L23.1886 6.95541L22.8103 9.93146ZM22.7761 12.0453L22.7817 15.0452L25.7282 15.0398L25.7757 12.0937L22.7761 12.0453ZM20.9662 12.0486L20.6964 15.0364L20.8338 15.0488L20.9718 15.0486L20.9662 12.0486ZM18.8868 12.6981L20.8547 14.9626L20.8572 14.9604L18.8868 12.6981ZM18.0607 16.5329H15.0607V19.5329H18.0607V16.5329ZM22.256 16.5329V19.5329H25.256V16.5329H22.256ZM19.6765 13.5251L17.6903 11.2768L17.6859 11.2807L19.6765 13.5251ZM20.9156 13.1624L20.7891 16.1597L20.8529 16.1624L20.9167 16.1624L20.9156 13.1624ZM23.9353 13.1613L23.9364 16.1613L26.8887 16.1602L26.9349 13.2083L23.9353 13.1613ZM24 9.03082L26.9996 9.07782L27.0375 6.65919L24.6819 6.10935L24 9.03082ZM23.5458 8.9248L24.2277 6.00333L24.2272 6.00321L23.5458 8.9248ZM14.5304 15.4168V18.4168H17.5304V15.4168H14.5304ZM11 15.4168V12.4168H8V15.4168H11ZM11 19.881H8V22.881H11V19.881ZM14.5304 19.881H17.5304V16.881H14.5304V19.881ZM14.5304 27.6933H11.5304V30.6933H14.5304V27.6933ZM19.2375 27.6933V30.6933H22.2375V27.6933H19.2375ZM19.2375 19.881V16.881H16.2375V19.881H19.2375ZM22.9585 19.881V22.881H25.5556L25.9276 20.3107L22.9585 19.881ZM23.6046 15.4168L26.5737 15.8465L27.07 12.4168H23.6046V15.4168ZM19.2375 15.4168H16.2375V18.4168H19.2375V15.4168ZM22.256 16.5328L19.2868 16.1039L18.9644 18.336L21.9336 18.7649L24.9027 19.1939L25.2252 16.9618L22.256 16.5328ZM21.9336 18.7649V15.7649H18.0607V18.7649V21.7649H21.9336V18.7649ZM18.0607 18.7649H15.0607V26.5772H18.0607H21.0607V18.7649H18.0607ZM18.0607 26.5772V23.5772H15.7072V26.5772V29.5772H18.0607V26.5772ZM15.7072 26.5772H18.7072V18.7649H15.7072H12.7072V26.5772H15.7072ZM15.7072 18.7649V15.7649H12.1768V18.7649V21.7649H15.7072V18.7649ZM12.1768 18.7649H15.1768V16.5328H12.1768H9.17679V18.7649H12.1768ZM12.1768 16.5328V19.5328H15.7072V16.5328V13.5328H12.1768V16.5328ZM15.7072 16.5328H18.7072V14.4871H15.7072H12.7072V16.5328H15.7072ZM15.7072 14.4871H18.7072C18.7072 13.7282 18.9396 13.3711 19.1009 13.2102C19.2628 13.0487 19.6245 12.8143 20.392 12.8143V9.81428V6.81428C18.3128 6.81428 16.3321 7.49725 14.8632 8.96262C13.3938 10.4287 12.7072 12.408 12.7072 14.4871H15.7072ZM20.392 9.81428V12.8143C21.5147 12.8143 22.1451 12.8711 22.432 12.9075L22.8103 9.93146L23.1886 6.95541C22.5975 6.88028 21.7076 6.81428 20.392 6.81428V9.81428ZM22.8103 9.93146L19.8107 9.88303L19.7765 11.9968L22.7761 12.0453L25.7757 12.0937L25.8099 9.9799L22.8103 9.93146ZM22.7761 12.0453L22.7706 9.04526L20.9607 9.0486L20.9662 12.0486L20.9718 15.0486L22.7817 15.0452L22.7761 12.0453ZM20.9662 12.0486L21.236 9.06075C21.0334 9.04246 20.4521 9.01059 19.7167 9.13752C18.9908 9.26285 17.8982 9.58087 16.9165 10.4359L18.8868 12.6981L20.8572 14.9604C20.7879 15.0208 20.732 15.0466 20.715 15.0537C20.7004 15.0598 20.7071 15.0553 20.7374 15.0501C20.7664 15.0451 20.7926 15.0436 20.8041 15.0433C20.8084 15.0432 20.8051 15.0434 20.7921 15.043C20.7854 15.0427 20.7756 15.0423 20.7623 15.0415C20.7522 15.0409 20.7295 15.0394 20.6964 15.0364L20.9662 12.0486ZM18.8868 12.6981L16.919 10.4337C15.5816 11.5959 15.0607 13.1851 15.0607 14.7327H18.0607H21.0607C21.0607 14.6124 21.0798 14.6165 21.0479 14.695C21.0321 14.7342 21.007 14.7828 20.9704 14.8342C20.9336 14.8858 20.8932 14.9291 20.8547 14.9626L18.8868 12.6981ZM18.0607 14.7327H15.0607V16.5329H18.0607H21.0607V14.7327H18.0607ZM18.0607 16.5329V19.5329H22.256V16.5329V13.5329H18.0607V16.5329ZM22.256 16.5329H25.256V16.5328H22.256H19.256V16.5329H22.256ZM19.6765 13.5251L21.6627 15.7735C21.4691 15.9445 21.2864 16.0353 21.1701 16.0817C21.055 16.1276 20.9698 16.1442 20.9302 16.1507C20.8878 16.1575 20.8564 16.1592 20.834 16.1597C20.8048 16.1604 20.7668 16.1588 20.7891 16.1597L20.9156 13.1624L21.0422 10.1651C21.0694 10.1662 21.0009 10.163 20.9402 10.1615C20.8737 10.1598 20.7912 10.1591 20.6957 10.1613C20.5085 10.1657 20.2575 10.1814 19.9699 10.228C19.4498 10.3123 18.5205 10.5434 17.6903 11.2768L19.6765 13.5251ZM20.9156 13.1624L20.9167 16.1624L23.9364 16.1613L23.9353 13.1613L23.9342 10.1613L20.9145 10.1624L20.9156 13.1624ZM23.9353 13.1613L26.9349 13.2083L26.9996 9.07782L24 9.03082L21.0004 8.98382L20.9356 13.1143L23.9353 13.1613ZM24 9.03082L24.6819 6.10935L24.2277 6.00333L23.5458 8.9248L22.8638 11.8463L23.3181 11.9523L24 9.03082ZM23.5458 8.9248L24.2272 6.00321C23.6413 5.86656 22.504 5.69824 20.392 5.69824V8.69824V11.6982C22.2175 11.6982 22.8666 11.8469 22.8644 11.8464L23.5458 8.9248ZM20.392 8.69824V5.69824C17.9624 5.69824 15.7024 6.51662 14.0385 8.15998C12.3713 9.8065 11.5304 12.0569 11.5304 14.4871H14.5304H17.5304C17.5304 13.4554 17.8674 12.8114 18.2546 12.4289C18.6451 12.0433 19.3158 11.6982 20.392 11.6982V8.69824ZM14.5304 14.4871H11.5304V15.4168H14.5304H17.5304V14.4871H14.5304ZM14.5304 15.4168V12.4168H11V15.4168V18.4168H14.5304V15.4168ZM11 15.4168H8V19.881H11H14V15.4168H11ZM11 19.881V22.881H14.5304V19.881V16.881H11V19.881ZM14.5304 19.881H11.5304V27.6933H14.5304H17.5304V19.881H14.5304ZM14.5304 27.6933V30.6933H19.2375V27.6933V24.6933H14.5304V27.6933ZM19.2375 27.6933H22.2375V19.881H19.2375H16.2375V27.6933H19.2375ZM19.2375 19.881V22.881H22.9585V19.881V16.881H19.2375V19.881ZM22.9585 19.881L25.9276 20.3107L26.5737 15.8465L23.6046 15.4168L20.6355 14.9871L19.9895 19.4513L22.9585 19.881ZM23.6046 15.4168V12.4168H19.2375V15.4168V18.4168H23.6046V15.4168ZM19.2375 15.4168H22.2375V14.7327H19.2375H16.2375V15.4168H19.2375ZM19.2375 14.7327H22.2375C22.2375 14.7328 22.2375 14.7396 22.2366 14.7527C22.2356 14.7657 22.2337 14.7858 22.2296 14.8121C22.2215 14.8643 22.2042 14.9458 22.1672 15.0476C22.0886 15.2636 21.9336 15.5332 21.6671 15.7696L19.6765 13.5251L17.6859 11.2807C16.5315 12.3045 16.2375 13.6803 16.2375 14.7327H19.2375Z" fill="white" mask="url(#path-2-inside-1_984_8563)"/>
</svg>
